<svg width="25" height="24" viewBox="0 0 25 24" fill="none" xmlns="http://www.w3.org/2000/svg">
<g clip-path="url(#clip0_0_101)">
<path d="M24.1366 12.2764C24.1366 11.4607 24.0705 10.6405 23.9294 9.83804H12.6106V14.459H19.0923C18.8234 15.9494 17.9591 17.2678 16.6936 18.1055V21.1039H20.5606C22.8315 19.0139 24.1366 15.9273 24.1366 12.2764Z" fill="#4285F4"/>
<path d="M12.6106 24.0008C15.847 24.0008 18.5764 22.9382 20.565 21.1039L16.698 18.1055C15.6222 18.8375 14.2332 19.252 12.615 19.252C9.48437 19.252 6.82995 17.1399 5.87753 14.3003H1.88708V17.3912C3.9242 21.4434 8.07338 24.0008 12.6106 24.0008V24.0008Z" fill="#34A853"/>
<path d="M5.87313 14.3003C5.37047 12.8099 5.37047 11.1961 5.87313 9.70575V6.61481H1.8871C0.185095 10.0056 0.185095 14.0004 1.8871 17.3912L5.87313 14.3003V14.3003Z" fill="#FBBC04"/>
<path d="M12.6106 4.74966C14.3214 4.7232 15.9749 5.36697 17.2139 6.54867L20.64 3.12262C18.4706 1.0855 15.5913 -0.034466 12.6106 0.000808666C8.07338 0.000808666 3.9242 2.55822 1.88708 6.61481L5.87312 9.70575C6.82113 6.86173 9.47996 4.74966 12.6106 4.74966V4.74966Z" fill="#EA4335"/>
</g>
<defs>
<clipPath id="clip0_0_101">
<rect width="24" height="24" fill="white" transform="translate(0.370605)"/>
</clipPath>
</defs>
</svg>
