<svg width="48" height="48" viewBox="0 0 48 48" fill="none" xmlns="http://www.w3.org/2000/svg">
<path d="M8.93972 14.053L8.46298 13.4741L8.46298 13.4741L8.93972 14.053ZM18.9397 5.8187L18.463 5.23972H18.463L18.9397 5.8187ZM29.0603 5.81869L28.5835 6.39767L29.0603 5.81869ZM39.0603 14.053L38.5835 14.632L39.0603 14.053ZM41.25 20.3007V35.9337H42.75V20.3007H41.25ZM34 43.25H14V44.75H34V43.25ZM6.75 35.9337V20.3007H5.25V35.9337H6.75ZM9.41647 14.632L19.4165 6.39767L18.463 5.23972L8.46298 13.4741L9.41647 14.632ZM28.5835 6.39767L38.5835 14.632L39.537 13.4741L29.537 5.23972L28.5835 6.39767ZM19.4165 6.39767C22.0844 4.20078 25.9156 4.20078 28.5835 6.39767L29.537 5.23972C26.3152 2.58676 21.6848 2.58676 18.463 5.23972L19.4165 6.39767ZM14 43.25C10.0018 43.25 6.75 39.9802 6.75 35.9337H5.25C5.25 40.797 9.16168 44.75 14 44.75V43.25ZM41.25 35.9337C41.25 39.9802 37.9982 43.25 34 43.25V44.75C38.8383 44.75 42.75 40.797 42.75 35.9337H41.25ZM42.75 20.3007C42.75 17.6559 41.5715 15.1493 39.537 13.4741L38.5835 14.632C40.27 16.0207 41.25 18.1016 41.25 20.3007H42.75ZM6.75 20.3007C6.75 18.1016 7.73005 16.0207 9.41647 14.632L8.46298 13.4741C6.42853 15.1493 5.25 17.6559 5.25 20.3007H6.75ZM32.75 44V36H31.25V44H32.75ZM15.25 36V44H16.75V36H15.25ZM24 27.25C19.1675 27.25 15.25 31.1675 15.25 36H16.75C16.75 31.9959 19.9959 28.75 24 28.75V27.25ZM32.75 36C32.75 31.1675 28.8325 27.25 24 27.25V28.75C28.0041 28.75 31.25 31.9959 31.25 36H32.75Z" fill="#F2F2F2"/>
</svg>
