<svg width="48" height="48" viewBox="0 0 48 48" fill="none" xmlns="http://www.w3.org/2000/svg">
<path d="M20 11.25C19.5858 11.25 19.25 11.5858 19.25 12C19.25 12.4142 19.5858 12.75 20 12.75V11.25ZM32 12.75C32.4142 12.75 32.75 12.4142 32.75 12C32.75 11.5858 32.4142 11.25 32 11.25V12.75ZM20 27.25C19.5858 27.25 19.25 27.5858 19.25 28C19.25 28.4142 19.5858 28.75 20 28.75V27.25ZM32 28.75C32.4142 28.75 32.75 28.4142 32.75 28C32.75 27.5858 32.4142 27.25 32 27.25V28.75ZM20 19.25C19.5858 19.25 19.25 19.5858 19.25 20C19.25 20.4142 19.5858 20.75 20 20.75V19.25ZM44 20.75C44.4142 20.75 44.75 20.4142 44.75 20C44.75 19.5858 44.4142 19.25 44 19.25V20.75ZM20 35.25C19.5858 35.25 19.25 35.5858 19.25 36C19.25 36.4142 19.5858 36.75 20 36.75V35.25ZM44 36.75C44.4142 36.75 44.75 36.4142 44.75 36C44.75 35.5858 44.4142 35.25 44 35.25V36.75ZM6 12.75H10V11.25H6V12.75ZM11.25 14V18H12.75V14H11.25ZM10 19.25H6V20.75H10V19.25ZM4.75 18V14H3.25V18H4.75ZM6 19.25C5.30964 19.25 4.75 18.6904 4.75 18H3.25C3.25 19.5188 4.48122 20.75 6 20.75V19.25ZM11.25 18C11.25 18.6904 10.6904 19.25 10 19.25V20.75C11.5188 20.75 12.75 19.5188 12.75 18H11.25ZM10 12.75C10.6904 12.75 11.25 13.3096 11.25 14H12.75C12.75 12.4812 11.5188 11.25 10 11.25V12.75ZM6 11.25C4.48122 11.25 3.25 12.4812 3.25 14H4.75C4.75 13.3096 5.30964 12.75 6 12.75V11.25ZM6 28.75H10V27.25H6V28.75ZM11.25 30V34H12.75V30H11.25ZM10 35.25H6V36.75H10V35.25ZM4.75 34V30H3.25V34H4.75ZM6 35.25C5.30964 35.25 4.75 34.6904 4.75 34H3.25C3.25 35.5188 4.48122 36.75 6 36.75V35.25ZM11.25 34C11.25 34.6904 10.6904 35.25 10 35.25V36.75C11.5188 36.75 12.75 35.5188 12.75 34H11.25ZM10 28.75C10.6904 28.75 11.25 29.3096 11.25 30H12.75C12.75 28.4812 11.5188 27.25 10 27.25V28.75ZM6 27.25C4.48122 27.25 3.25 28.4812 3.25 30H4.75C4.75 29.3096 5.30964 28.75 6 28.75V27.25ZM20 12.75H32V11.25H20V12.75ZM20 28.75H32V27.25H20V28.75ZM20 20.75H44V19.25H20V20.75ZM20 36.75H44V35.25H20V36.75Z" fill="#F2F2F2"/>
</svg>
