<svg width="48" height="48" viewBox="0 0 48 48" fill="none" xmlns="http://www.w3.org/2000/svg">
<path d="M28 34C28 31.7909 26.2091 30 24 30C21.7909 30 20 31.7909 20 34C20 36.2091 21.7909 38 24 38C26.2091 38 28 36.2091 28 34Z" fill="#F2F2F2"/>
<path d="M30 25.9993H29.25C29.25 26.2351 29.361 26.4573 29.5496 26.5989L30 25.9993ZM18 25.9993L18.4504 26.5989C18.639 26.4573 18.75 26.2351 18.75 25.9993H18ZM23.25 34C23.25 34.4142 23.5858 34.75 24 34.75C24.4142 34.75 24.75 34.4142 24.75 34H23.25ZM24.75 10C24.75 9.58579 24.4142 9.25 24 9.25C23.5858 9.25 23.25 9.58579 23.25 10H24.75ZM39.25 12C39.25 12.4142 39.5858 12.75 40 12.75C40.4142 12.75 40.75 12.4142 40.75 12H39.25ZM40.75 4C40.75 3.58579 40.4142 3.25 40 3.25C39.5858 3.25 39.25 3.58579 39.25 4H40.75ZM36 7.25C35.5858 7.25 35.25 7.58579 35.25 8C35.25 8.41421 35.5858 8.75 36 8.75V7.25ZM44 8.75C44.4142 8.75 44.75 8.41421 44.75 8C44.75 7.58579 44.4142 7.25 44 7.25V8.75ZM33.25 34C33.25 39.1086 29.1086 43.25 24 43.25V44.75C29.9371 44.75 34.75 39.9371 34.75 34H33.25ZM24 43.25C18.8914 43.25 14.75 39.1086 14.75 34H13.25C13.25 39.9371 18.0629 44.75 24 44.75V43.25ZM24 4.75C26.8995 4.75 29.25 7.10051 29.25 10H30.75C30.75 6.27208 27.7279 3.25 24 3.25V4.75ZM24 3.25C20.2721 3.25 17.25 6.27208 17.25 10H18.75C18.75 7.10051 21.1005 4.75 24 4.75V3.25ZM29.25 10V25.9993H30.75V10H29.25ZM29.5496 26.5989C31.798 28.2878 33.25 30.9742 33.25 34H34.75C34.75 30.4825 33.0598 27.3596 30.4504 25.3996L29.5496 26.5989ZM18.75 25.9993V10H17.25V25.9993H18.75ZM14.75 34C14.75 30.9742 16.202 28.2878 18.4504 26.5989L17.5496 25.3996C14.9402 27.3596 13.25 30.4825 13.25 34H14.75ZM24.75 34V10H23.25V34H24.75ZM40.75 12V4H39.25V12H40.75ZM36 8.75H44V7.25L36 7.25V8.75Z" fill="#F2F2F2"/>
</svg>
